<?xml version="1.0" standalone="no"?>
<!DOCTYPE svg PUBLIC "-//W3C//DTD SVG 20010904//EN"
 "http://www.w3.org/TR/2001/REC-SVG-20010904/DTD/svg10.dtd">
<svg version="1.0" xmlns="http://www.w3.org/2000/svg"
 width="626.000000pt" height="626.000000pt" viewBox="0 0 626.000000 626.000000"
 preserveAspectRatio="xMidYMid meet">

<g transform="translate(0.000000,626.000000) scale(0.100000,-0.100000)"
fill="#000000" stroke="none">
<path d="M1291 5112 c-19 -9 -57 -46 -84 -81 l-50 -64 16 -46 c17 -53 439
-1137 464 -1194 31 -70 4 -67 550 -67 479 0 493 -1 493 -19 0 -41 41 -147 75
-197 45 -66 123 -126 198 -155 59 -23 81 -55 30 -43 l-28 6 25 -14 c24 -13 25
-19 28 -107 3 -114 -5 -128 -82 -134 l-51 -3 53 -2 c78 -3 92 15 92 119 0 74
2 80 18 73 9 -4 37 -9 61 -12 41 -4 44 -7 68 -58 13 -30 28 -54 31 -54 4 0 22
25 40 55 32 53 35 55 75 55 45 0 88 23 113 59 14 20 23 21 173 21 195 0 191 2
191 -123 0 -103 -9 -117 -78 -117 -47 0 -48 -1 -80 -55 -18 -30 -35 -55 -37
-55 -2 0 -15 25 -29 55 l-25 55 -50 0 c-40 0 -53 4 -65 22 -9 12 -16 18 -16
12 0 -24 38 -44 81 -44 l45 0 28 -61 28 -62 39 62 c38 59 41 61 82 61 23 0 53
7 65 16 20 14 22 23 22 112 0 75 3 93 12 84 7 -7 33 -12 59 -12 l46 0 26 -60
c15 -33 28 -60 31 -60 2 0 21 27 41 60 36 60 37 60 84 60 26 0 52 5 59 12 9 9
12 -6 12 -69 0 -106 18 -133 89 -133 l48 0 27 -62 27 -63 37 62 37 63 48 0
c74 0 87 19 87 130 0 131 2 130 -197 130 -87 0 -165 -4 -173 -10 -9 -6 -17 -5
-22 3 -5 8 -8 5 -8 -8 0 -33 -20 -45 -72 -45 -47 0 -48 -1 -85 -56 l-37 -56
-28 56 -28 56 -48 0 c-52 0 -72 12 -73 45 0 17 -1 18 -7 3 -5 -13 -11 -15 -22
-8 -8 5 -84 10 -169 10 -130 0 -157 -3 -173 -17 -17 -15 -18 -15 -18 4 0 16 9
22 37 28 143 27 278 168 313 328 l13 57 534 0 c293 0 533 -2 533 -4 0 -2 -9
-23 -20 -47 -11 -24 -19 -51 -19 -59 0 -8 9 6 19 31 73 180 226 301 414 329
43 6 46 8 15 9 -78 2 -212 -54 -284 -120 -23 -21 -45 -39 -47 -39 -3 0 97 264
223 587 126 323 229 599 229 613 0 30 -86 132 -131 155 -24 13 -281 15 -1971
15 -1830 0 -1945 -1 -1977 -18z m3959 -14 c18 -13 44 -38 58 -55 l25 -33
-2062 0 -2062 0 18 31 c17 30 53 60 83 72 8 3 891 6 1961 6 l1946 1 33 -22z
m98 -110 c25 -25 44 32 -233 -678 -87 -223 -175 -450 -196 -505 -21 -55 -48
-108 -60 -117 -20 -17 -111 -18 -1593 -18 -1306 1 -1574 3 -1589 14 -10 8 -67
139 -126 292 -60 154 -170 436 -245 628 -75 192 -136 353 -136 357 0 4 7 15
16 23 14 14 217 16 2083 16 1594 0 2070 -3 2079 -12z m-1777 -1420 c-2 -27
-11 -52 -24 -65 -20 -23 -23 -23 -312 -23 -281 0 -293 1 -319 21 -21 17 -26
29 -26 67 l0 47 342 -2 342 -2 -3 -43z m-581 -114 c0 -8 -19 -13 -24 -6 -3 5
1 9 9 9 8 0 15 -2 15 -3z m685 -3 c3 -5 2 -12 -3 -15 -5 -3 -9 1 -9 9 0 17 3
19 12 6z m-830 -20 c3 -5 0 -13 -6 -17 -8 -5 -9 -3 -4 6 6 10 4 12 -9 7 -10
-4 -15 -3 -11 3 8 13 22 13 30 1z m536 -27 c16 -14 19 -31 19 -101 0 -102 -14
-123 -85 -123 -44 0 -46 -2 -81 -57 l-37 -56 -22 54 c-23 54 -24 54 -73 59
-75 8 -82 18 -82 119 0 54 5 93 13 104 15 19 46 23 205 20 102 -1 127 -5 143
-19z m30 -1 c13 -16 12 -17 -3 -4 -17 13 -22 21 -14 21 2 0 10 -8 17 -17z
m-528 -37 c11 1 16 0 13 -4 -13 -12 -36 -10 -48 6 -11 15 -11 15 2 6 8 -6 23
-10 33 -8z m42 -44 c-3 -3 -11 0 -18 7 -9 10 -8 11 6 5 10 -3 15 -9 12 -12z
m1619 -78 c12 -12 16 -37 16 -104 0 -107 -9 -120 -79 -120 -48 0 -48 -1 -84
-57 l-35 -58 -26 58 -25 57 -50 0 c-68 0 -81 20 -81 120 0 121 -1 120 190 120
131 0 161 -3 174 -16z"/>
<path d="M1260 4925 c0 -4 361 -976 414 -1115 l14 -35 1575 -3 c1272 -2 1576
0 1580 11 4 11 100 269 373 1000 24 66 44 125 44 133 0 12 -286 14 -2000 14
-1100 0 -2000 -2 -2000 -5z m3460 -81 c0 -9 -27 -102 -61 -208 -33 -105 -80
-254 -104 -331 -24 -77 -68 -216 -98 -310 l-53 -170 -1136 -3 -1137 -2 -49
157 c-28 87 -83 262 -122 388 -40 127 -90 285 -112 352 -22 68 -37 127 -33
133 4 7 479 10 1456 10 1328 0 1449 -1 1449 -16z"/>
<path d="M1953 4722 c-29 -2 -53 -6 -53 -9 0 -3 39 -132 86 -287 47 -154 107
-350 132 -433 l46 -153 1103 0 1102 0 31 103 c18 56 49 158 70 227 45 146 161
531 163 543 2 7 -2563 16 -2680 9z m522 -67 c0 -6 -88 -11 -237 -13 -209 -2
-238 0 -238 13 0 13 29 15 238 13 149 -2 237 -7 237 -13z m213 -2 c2 -9 -10
-13 -42 -13 -35 0 -46 4 -46 16 0 12 9 14 42 12 23 -2 43 -9 46 -15z m660 0
c3 -10 -58 -13 -282 -13 -259 0 -299 3 -280 23 4 3 130 5 282 4 210 -2 276 -5
280 -14z m765 2 c1 -6 -110 -11 -315 -13 -175 -1 -318 2 -318 6 0 5 3 12 7 15
11 12 623 3 626 -8z m-1415 -82 c2 -9 -10 -13 -42 -13 -35 0 -46 4 -46 16 0
12 9 14 42 12 23 -2 43 -9 46 -15z m1460 0 c3 -10 -88 -13 -432 -13 -240 0
-436 4 -436 8 0 5 3 12 7 15 3 4 198 6 431 5 330 -2 426 -6 430 -15z m-1673
-3 c-4 -6 -72 -10 -170 -10 -98 0 -166 4 -170 10 -4 7 55 10 170 10 115 0 174
-3 170 -10z m2045 0 c0 -6 -48 -10 -125 -10 -77 0 -125 4 -125 10 0 6 48 10
125 10 77 0 125 -4 125 -10z m-2032 -77 c3 -10 -46 -13 -222 -13 -196 0 -226
2 -226 15 0 13 29 15 222 13 166 -2 222 -6 226 -15z m210 0 c2 -9 -9 -13 -37
-13 -39 0 -57 10 -44 24 12 11 76 2 81 -11z m1805 2 c2 -10 -1075 -20 -1101
-10 -7 3 -10 9 -7 15 9 14 1104 9 1108 -5z m-2000 -80 c-3 -11 -331 -20 -370
-10 -13 3 -23 10 -23 15 0 7 70 9 198 8 125 -2 196 -7 195 -13z m205 -2 c2 -9
-9 -13 -37 -13 -30 0 -41 4 -41 16 0 11 9 14 37 12 20 -2 38 -9 41 -15z m487
7 c4 -6 -15 -10 -49 -10 -31 0 -56 5 -56 10 0 6 22 10 49 10 28 0 53 -4 56
-10z m1283 -2 c-4 -10 -137 -13 -623 -13 -486 0 -619 3 -622 13 -4 9 125 12
622 12 497 0 626 -3 623 -12z m-1984 -64 c63 -16 0 -24 -184 -24 -195 0 -270
7 -205 20 43 9 357 12 389 4z m221 -9 c0 -5 -17 -11 -37 -13 -30 -3 -38 0 -38
13 0 13 8 16 38 13 20 -2 37 -7 37 -13z m560 0 c0 -6 -88 -11 -237 -13 -209
-2 -238 0 -238 13 0 13 29 15 238 13 149 -2 237 -7 237 -13z m695 0 c0 -6 -98
-11 -270 -13 -237 -2 -270 0 -270 13 0 13 33 15 270 13 172 -2 270 -7 270 -13z
m-1440 -70 c0 -13 -22 -15 -135 -15 -113 0 -135 2 -135 15 0 13 22 15 135 15
113 0 135 -2 135 -15z m190 0 c0 -11 -10 -15 -35 -15 -22 0 -35 5 -35 13 0 8
14 14 35 15 26 2 35 -1 35 -13z m1080 0 c0 -13 -62 -15 -494 -15 -272 0 -497
4 -500 9 -3 4 -3 11 1 15 3 3 228 6 500 6 432 0 493 -2 493 -15z m220 -5 c0
-6 -27 -10 -60 -10 -33 0 -60 4 -60 10 0 6 27 10 60 10 33 0 60 -4 60 -10z
m-1477 -65 c1 -6 -75 -11 -210 -13 -186 -2 -213 0 -213 13 0 13 26 15 210 13
129 -2 211 -7 213 -13z m187 0 c0 -10 -11 -15 -35 -15 -24 0 -35 5 -35 15 0
10 11 15 35 15 24 0 35 -5 35 -15z m370 0 c0 -13 -22 -15 -139 -15 -127 0
-162 6 -144 24 3 3 69 6 145 6 116 0 138 -2 138 -15z m1008 3 c-4 -10 -105
-14 -454 -16 -247 -1 -455 0 -462 3 -7 3 -10 9 -7 15 10 16 928 14 923 -2z
m216 3 c6 -10 -81 -24 -95 -15 -5 3 -7 10 -4 15 8 11 92 12 99 0z m-1764 -70
c0 -5 -17 -11 -37 -14 -61 -7 -278 -8 -296 -1 -46 17 -2 24 158 24 96 0 175
-4 175 -9z m180 -1 c0 -5 -16 -10 -35 -10 -19 0 -35 5 -35 10 0 6 16 10 35 10
19 0 35 -4 35 -10z m180 0 c0 -5 -20 -10 -45 -10 -25 0 -45 5 -45 10 0 6 20
10 45 10 25 0 45 -4 45 -10z m1070 1 c0 -15 -45 -16 -528 -13 -293 1 -451 6
-447 12 8 13 975 14 975 1z m-1430 -66 c0 -16 -332 -13 -338 3 -3 10 32 12
167 10 106 -2 171 -7 171 -13z m190 -1 c0 -11 -8 -14 -32 -12 -46 4 -49 28 -4
28 26 0 36 -4 36 -16z m1628 4 c-4 -10 -82 -13 -348 -13 -266 0 -344 3 -347
13 -4 9 70 12 347 12 277 0 351 -3 348 -12z m-880 -5 c-32 -2 -86 -2 -120 0
-35 2 -9 3 57 3 66 0 94 -1 63 -3z m-920 -60 c3 -10 -38 -13 -182 -13 -168 0
-208 5 -189 24 4 3 88 5 187 4 133 -2 180 -6 184 -15z m180 -1 c2 -8 -8 -12
-32 -12 -25 0 -36 4 -36 15 0 18 61 16 68 -3z m1602 3 c0 -13 -75 -15 -615
-15 -558 0 -651 4 -602 23 6 3 283 6 615 6 529 1 602 -1 602 -14z m-1303 -2
c-10 -9 -69 -11 -92 -2 -13 5 1 8 39 8 33 1 56 -2 53 -6z m-289 -60 c2 -9 -8
-13 -32 -13 -26 0 -36 4 -36 16 0 19 61 16 68 -3z m860 0 c3 -10 -80 -13 -392
-13 -218 0 -396 4 -396 8 0 5 3 12 7 15 4 4 180 6 391 5 298 -2 386 -6 390
-15z m-1048 0 c0 -9 -229 -7 -238 1 -3 3 49 6 116 6 67 0 122 -3 122 -7z
m1210 0 c0 -10 -68 -9 -77 1 -3 3 12 6 35 6 23 0 42 -3 42 -7z m-1190 -58 c0
-13 -28 -15 -195 -15 -167 0 -195 2 -195 15 0 13 28 15 195 15 167 0 195 -2
195 -15z m170 1 c0 -11 -30 -14 -68 -7 -2 1 0 6 3 11 10 16 65 12 65 -4z
m1268 2 c-7 -19 -1179 -19 -1185 0 -4 9 119 12 592 12 473 0 596 -3 593 -12z"/>
<path d="M3150 3347 c0 -13 -5 -28 -11 -34 -8 -8 -8 -13 0 -17 6 -4 11 -20 11
-37 0 -21 5 -29 18 -28 10 0 12 3 5 6 -8 3 -13 26 -13 63 0 37 5 60 13 63 7 3
5 6 -5 6 -12 1 -18 -6 -18 -22z"/>
<path d="M3238 3363 c16 -6 16 -105 0 -121 -9 -9 -8 -12 4 -12 18 0 27 47 20
105 -3 25 -9 35 -21 34 -10 0 -11 -2 -3 -6z"/>
<path d="M4358 3163 c12 -2 30 -2 40 0 9 3 -1 5 -23 4 -22 0 -30 -2 -17 -4z"/>
<path d="M4358 3123 c12 -2 30 -2 40 0 9 3 -1 5 -23 4 -22 0 -30 -2 -17 -4z"/>
<path d="M5360 3910 c66 -8 117 -24 185 -57 42 -20 46 -21 25 -4 -36 29 -172
71 -222 70 -42 -2 -41 -2 12 -9z"/>
<path d="M5330 3831 c47 -5 99 -11 115 -15 29 -6 29 -6 5 5 -14 6 -65 13 -115
14 l-90 4 85 -8z"/>
<path d="M5218 3823 c7 -3 16 -2 19 1 4 3 -2 6 -13 5 -11 0 -14 -3 -6 -6z"/>
<path d="M5126 3794 c-92 -48 -196 -181 -196 -249 1 -11 9 4 20 32 10 29 27
65 39 81 35 49 110 113 164 138 29 13 45 24 37 23 -8 0 -37 -11 -64 -25z"/>
<path d="M5231 3734 c-150 -40 -239 -163 -229 -314 9 -117 65 -196 178 -249
74 -35 201 -37 271 -5 129 60 203 189 184 323 -11 78 -16 81 -113 58 -59 -14
-80 -23 -73 -30 31 -31 -3 -84 -68 -106 -42 -14 -98 -14 -106 -1 -3 6 1 10 9
10 9 0 25 9 36 20 29 29 11 58 -40 66 -22 4 -40 11 -40 16 0 5 16 18 36 30
l36 21 -31 24 c-44 34 -41 67 9 115 37 34 39 38 18 37 -13 0 -47 -7 -77 -15z"/>
<path d="M5749 3648 c16 -29 36 -77 45 -105 l15 -53 -39 0 c-35 0 -39 3 -45
31 -10 43 -35 102 -41 96 -3 -3 2 -31 12 -63 29 -100 10 -201 -58 -304 -25
-39 -26 -41 -4 -15 35 40 33 18 -2 -31 -45 -62 -129 -131 -185 -153 -29 -11
-45 -20 -37 -20 61 -2 207 115 250 200 11 21 26 39 34 39 7 0 34 3 60 6 l47 7
-6 -29 -5 -29 11 30 c7 17 17 34 23 38 6 5 0 6 -14 4 -75 -16 -120 -19 -120
-8 0 6 15 12 33 12 30 2 31 2 4 6 -23 4 -27 8 -21 26 10 33 15 36 80 47 l59 9
-64 -4 c-54 -4 -62 -3 -57 11 3 9 6 31 6 50 l0 34 68 0 c83 0 109 -15 115 -68
l4 -37 1 37 c2 29 -4 41 -24 57 -15 12 -37 21 -50 21 -19 0 -25 9 -39 58 -18
60 -64 152 -78 152 -4 0 6 -24 22 -52z"/>
<path d="M4786 3499 c-3 -17 -5 -66 -4 -108 1 -74 1 -74 8 29 8 111 7 130 -4
79z"/>
<path d="M4921 3432 c-1 -62 2 -91 9 -87 7 4 9 -2 7 -17 -2 -12 -2 -17 0 -10
4 10 8 9 19 -5 10 -13 10 -7 -2 22 -9 22 -20 74 -24 115 l-7 75 -2 -93z"/>
<path d="M3812 3444 c-12 -8 -22 -23 -22 -32 1 -14 2 -14 12 3 6 11 16 23 22
27 6 4 79 8 161 8 83 0 155 -4 161 -8 6 -4 16 -16 22 -27 10 -17 11 -17 12 -3
0 39 -37 48 -195 48 -120 0 -155 -3 -173 -16z"/>
<path d="M2247 3402 c-24 -26 -21 -36 3 -12 18 18 33 20 174 20 191 0 186 3
186 -120 0 -106 -9 -120 -79 -120 -46 0 -47 -1 -80 -55 -18 -30 -35 -55 -37
-55 -2 0 -15 25 -29 55 l-24 55 -45 0 c-31 0 -51 6 -61 18 -9 9 -29 32 -45 50
l-29 32 -161 0 c-202 0 -200 1 -200 -130 0 -109 15 -130 90 -130 l45 0 24 -60
c13 -33 28 -57 32 -54 5 2 23 29 41 59 32 54 34 55 78 55 74 0 90 22 90 122
l0 81 20 -26 c16 -20 31 -27 68 -29 47 -3 47 -3 75 -62 l29 -60 39 62 c39 61
40 62 84 62 72 0 85 20 85 130 0 131 2 130 -198 130 -141 0 -161 -2 -175 -18z
m-55 -159 c15 -13 18 -31 18 -101 0 -105 -11 -122 -81 -122 -47 0 -48 -1 -83
-57 l-35 -57 -26 57 c-26 56 -27 57 -69 57 -23 0 -52 7 -64 16 -20 14 -22 24
-22 101 0 125 -3 123 188 123 131 0 158 -3 174 -17z"/>
<path d="M1990 3189 c0 -5 5 -7 10 -4 6 3 10 8 10 11 0 2 -4 4 -10 4 -5 0 -10
-5 -10 -11z"/>
<path d="M2036 3175 c-9 -14 -12 -25 -7 -25 5 0 12 -17 14 -37 l4 -38 1 38 c2
28 6 37 20 37 16 1 16 2 -1 14 -18 14 -18 15 0 25 15 9 16 10 2 11 -9 0 -24
-11 -33 -25z"/>
<path d="M1993 3125 c0 -27 2 -38 4 -22 2 15 2 37 0 50 -2 12 -4 0 -4 -28z"/>
<path d="M5865 3370 c27 -12 43 -12 25 0 -8 5 -22 9 -30 9 -10 0 -8 -3 5 -9z"/>
<path d="M3980 3360 c0 -5 5 -10 10 -10 6 0 10 5 10 10 0 6 -4 10 -10 10 -5 0
-10 -4 -10 -10z"/>
<path d="M2223 3300 c0 -36 2 -50 4 -32 2 17 2 47 0 65 -2 17 -4 3 -4 -33z"/>
<path d="M2360 3285 c0 -53 4 -75 13 -75 9 0 11 18 9 66 -3 48 0 69 10 75 9 6
7 9 -9 9 -22 0 -23 -4 -23 -75z"/>
<path d="M2458 3353 c16 -6 16 -115 0 -131 -9 -9 -8 -12 5 -12 14 0 17 11 17
75 0 65 -2 75 -17 74 -11 0 -13 -3 -5 -6z"/>
<path d="M5875 3324 c-22 -13 -35 -24 -30 -24 12 0 75 38 75 45 0 6 2 7 -45
-21z"/>
<path d="M5785 3320 c-27 -7 -28 -8 -5 -8 14 0 34 3 45 8 25 11 2 11 -40 0z"/>
<path d="M3980 3283 c0 -22 2 -25 10 -13 13 20 13 40 0 40 -5 0 -10 -12 -10
-27z"/>
<path d="M4796 3275 c9 -62 60 -158 117 -221 49 -55 157 -134 181 -134 6 0
-14 15 -44 32 -113 65 -209 188 -246 317 -14 46 -14 46 -8 6z"/>
<path d="M4946 3270 c10 -39 61 -115 103 -153 21 -19 64 -47 96 -63 51 -24 72
-29 154 -30 l96 -2 -96 7 c-75 6 -109 13 -153 35 -71 35 -146 109 -180 178
-15 29 -24 42 -20 28z"/>
<path d="M4986 3257 c3 -10 9 -15 12 -12 3 3 0 11 -7 18 -10 9 -11 8 -5 -6z"/>
<path d="M2647 3232 c-10 -10 -17 -25 -16 -33 0 -8 4 -4 9 9 5 12 20 27 32 32
15 5 17 9 7 9 -9 1 -23 -7 -32 -17z"/>
<path d="M5758 3167 c-54 -110 -170 -210 -298 -255 -40 -14 -51 -21 -30 -18
66 11 180 75 239 136 50 51 130 175 119 185 -2 3 -16 -19 -30 -48z"/>
<path d="M5054 3181 c32 -35 136 -81 196 -86 57 -5 51 -2 -37 16 -29 6 -79 28
-115 51 -38 24 -55 32 -44 19z"/>
<path d="M3403 3125 c0 -38 2 -53 4 -32 2 20 2 52 0 70 -2 17 -4 1 -4 -38z"/>
<path d="M3513 3165 c-6 -14 -7 -25 -3 -25 5 0 11 -17 13 -37 l4 -38 1 38 c1
22 7 37 15 37 8 0 7 4 -3 10 -13 9 -12 12 4 25 20 15 20 15 0 15 -10 0 -24
-11 -31 -25z"/>
<path d="M2770 3120 c0 -35 3 -60 7 -56 7 7 5 108 -3 115 -2 2 -4 -24 -4 -59z"/>
<path d="M3579 3141 c-15 -12 -20 -23 -15 -39 15 -47 90 -34 84 15 -4 35 -40
48 -69 24z m55 -16 c3 -8 -2 -22 -11 -30 -14 -15 -18 -15 -31 -1 -8 8 -12 22
-9 30 8 20 43 21 51 1z"/>
<path d="M2675 3137 c-40 -30 11 -92 54 -67 13 7 10 9 -11 10 -15 0 -30 5 -33
10 -4 6 8 10 29 10 39 0 45 10 20 34 -19 20 -35 20 -59 3z m55 -18 c0 -5 -11
-9 -25 -9 -26 0 -34 15 -12 23 16 5 37 -3 37 -14z"/>
<path d="M2821 3141 c-19 -12 -6 -41 19 -41 11 0 20 -4 20 -10 0 -5 -12 -10
-27 -10 -24 -1 -25 -2 -11 -11 12 -7 24 -6 38 1 24 13 26 29 5 35 -54 17 -52
15 -32 26 9 6 22 7 29 3 7 -4 8 -3 4 4 -9 14 -26 15 -45 3z"/>
<path d="M2905 3137 c-40 -30 11 -92 54 -67 12 7 8 9 -16 10 -18 0 -33 5 -33
10 0 6 14 10 30 10 31 0 39 17 18 38 -16 16 -30 15 -53 -1z m55 -18 c0 -5 -11
-9 -25 -9 -26 0 -34 15 -12 23 16 5 37 -3 37 -14z"/>
<path d="M3670 3116 c0 -19 5 -38 10 -41 6 -4 10 6 10 24 0 18 7 34 18 40 14
9 13 10 -10 11 -25 0 -28 -3 -28 -34z"/>
<path d="M5460 3120 c-18 -12 -2 -12 25 0 13 6 15 9 5 9 -8 0 -22 -4 -30 -9z"/>
<path d="M1406 3085 c-15 -60 -64 -143 -119 -202 -65 -69 -102 -95 -186 -129
-31 -13 -50 -24 -44 -24 25 0 99 34 153 71 66 44 108 87 149 153 31 50 67 143
58 152 -2 3 -8 -7 -11 -21z"/>
<path d="M5375 3100 l-40 -7 35 -1 c19 0 44 3 55 8 24 10 7 10 -50 0z"/>
<path d="M2631 3038 c-1 -26 39 -48 86 -48 42 0 42 0 69 -60 30 -66 25 -67 73
13 12 20 20 37 17 37 -3 0 -18 -21 -33 -47 l-28 -47 -25 57 -25 57 -45 0 c-47
0 -73 13 -83 40 -4 12 -6 12 -6 -2z"/>
<path d="M520 3005 c0 -25 112 -131 170 -160 145 -74 314 -73 451 1 55 30 154
126 122 118 -14 -4 -29 2 -43 16 l-21 21 -30 -26 c-36 -29 -56 -31 -88 -9 -22
16 -24 16 -33 1 -14 -26 -92 -67 -125 -67 -17 0 -49 7 -72 15 -45 16 -69 10
-132 -31 -38 -25 -78 -12 -86 27 -4 23 -10 28 -24 24 -22 -7 -69 38 -69 66 0
11 -4 19 -10 19 -5 0 -10 -7 -10 -15z"/>
<path d="M474 2944 c39 -82 213 -204 311 -218 33 -5 29 -3 -20 13 -33 11 -80
31 -104 43 -46 23 -140 109 -180 163 l-22 30 15 -31z"/>
<path d="M5120 2910 c8 -5 22 -9 30 -9 10 0 8 3 -5 9 -27 12 -43 12 -25 0z"/>
<path d="M5190 2889 c24 -7 215 -11 195 -4 -5 2 -57 5 -115 8 -58 2 -94 0 -80
-4z"/>
<path d="M2323 2852 l-503 -2 0 -615 0 -615 135 0 135 0 0 -176 c0 -158 -2
-180 -20 -208 -21 -35 -84 -206 -77 -212 2 -2 16 33 32 79 15 45 39 101 52
124 l24 42 -4 278 c-2 183 -8 301 -17 346 -13 63 -13 71 3 99 14 25 15 29 2
18 -13 -11 -15 -8 -15 21 0 69 26 146 65 193 20 25 43 46 50 46 7 0 31 20 53
46 32 36 46 44 68 42 17 -2 29 2 32 12 4 12 2 13 -9 3 -8 -7 -20 -8 -28 -4
-22 14 15 42 42 32 32 -12 33 -47 3 -92 -15 -22 -33 -67 -42 -100 -14 -56 -14
-65 2 -121 10 -33 26 -64 35 -69 19 -10 23 10 35 156 9 114 90 334 138 374 22
18 48 10 66 -21 14 -25 13 -32 -3 -75 -34 -88 -46 -182 -45 -353 0 -97 4 -153
8 -135 7 27 8 25 10 -20 1 -30 8 7 16 95 9 95 24 185 45 260 48 179 51 185 83
188 16 2 36 -4 47 -14 22 -20 24 -60 8 -184 -12 -99 -14 -469 -2 -519 8 -34 9
-34 31 40 12 41 29 100 37 131 23 80 78 131 130 118 9 -2 30 -2 140 4 l30 1 0
80 0 80 -80 0 -80 0 -3 -77 c-2 -63 -6 -76 -17 -71 -11 4 -15 24 -15 79 l0 74
-80 0 -80 0 0 -85 0 -85 56 0 c47 0 54 -2 45 -14 -8 -10 -22 -11 -54 -5 -23 4
-46 8 -50 9 -4 0 -6 44 -5 98 l3 97 63 3 62 3 0 79 0 80 -55 0 c-30 0 -55 5
-55 10 0 6 9 10 20 10 18 0 20 7 20 80 0 44 -3 80 -7 80 -5 0 -7 -34 -5 -75 3
-60 1 -75 -11 -75 -7 0 -19 11 -25 25 -13 27 -49 40 -87 31 -18 -5 -27 -17
-35 -46 -9 -33 -15 -40 -35 -40 -30 0 -33 16 -5 23 18 5 20 14 20 81 0 42 -3
76 -8 76 -4 0 -6 -21 -5 -47 l3 -48 -15 32 c-25 56 -82 56 -113 0 l-17 -32 -3
39 c-2 24 2 42 10 47 10 7 8 9 -5 9 -16 0 -18 -7 -16 -52 1 -29 -4 -70 -12
-91 l-14 -39 -55 3 c-30 1 -94 1 -142 1 l-87 -2 -3 -87 -3 -88 -127 -3 -128
-3 0 -79 0 -80 90 0 c69 0 90 -3 90 -13 0 -11 -21 -14 -90 -13 l-90 1 0 -82 0
-83 95 0 95 0 0 -90 c0 -53 4 -90 10 -90 6 0 10 -15 10 -34 l0 -35 -127 2
-128 2 -3 603 -2 602 1437 -2 1438 -3 0 -600 0 -600 -172 -1 -173 -1 0 34 c0
33 1 33 45 33 l45 0 0 80 0 80 -45 0 c-25 0 -45 5 -45 10 0 6 55 10 145 10
l146 0 -3 82 -3 82 -133 1 c-78 0 -131 4 -130 9 2 6 20 9 41 7 l37 -3 0 86 0
86 -45 0 c-25 0 -45 5 -45 10 0 6 11 10 26 10 25 0 25 0 23 80 l-2 80 -83 0
-84 0 0 -31 c0 -38 -24 -35 -28 4 -3 22 -9 27 -30 28 -28 0 -77 17 -54 18 8 1
12 24 12 81 0 77 -1 80 -22 79 -17 -1 -19 -2 -5 -6 14 -4 17 -16 17 -74 l0
-69 -51 0 c-78 0 -89 10 -89 80 0 53 2 59 23 63 19 4 18 4 -5 6 -27 1 -28 0
-28 -55 0 -75 -23 -68 -30 9 -4 47 -7 55 -20 47 -10 -6 -11 -10 -2 -10 7 0 12
-15 12 -40 l0 -41 -34 6 c-35 7 -96 -16 -96 -36 0 -6 12 -1 26 10 15 12 36 21
48 21 23 -1 75 -24 119 -54 15 -10 46 -20 68 -22 48 -5 85 -23 117 -57 13 -14
40 -28 60 -32 46 -8 58 -19 83 -66 24 -47 24 -59 2 -60 -16 0 -15 -1 1 -8 11
-4 25 -23 32 -42 13 -34 13 -34 7 14 l-6 47 37 0 36 0 0 -69 c0 -39 -3 -72 -8
-74 -4 -3 -19 -3 -35 0 -19 4 -27 12 -28 27 -2 31 -18 -54 -17 -89 1 -23 2
-25 5 -7 4 22 7 22 139 22 l134 0 0 -70 0 -70 -139 0 -140 0 -4 48 c-2 26 -4
-87 -5 -251 -2 -293 -2 -299 24 -392 15 -53 29 -94 31 -91 2 2 -7 44 -22 94
-20 74 -25 113 -25 206 l0 116 178 2 177 3 3 37 3 37 32 -19 c29 -18 49 -20
242 -18 l210 2 -217 6 c-212 5 -217 6 -242 29 l-26 24 0 508 0 507 31 26 31
26 598 -2 c329 -2 593 0 587 4 -7 4 -275 8 -597 8 -566 0 -586 -1 -617 -20
l-33 -20 0 45 c0 40 -3 45 -22 45 -1107 4 -1983 4 -2375 2z m278 -405 c-13
-13 -15 1 -4 30 7 17 8 17 11 -1 2 -10 -1 -23 -7 -29z m-311 -53 c0 -17 -94
-112 -115 -116 -24 -5 -25 -4 -25 58 l0 64 70 0 c39 0 70 -3 70 -6z m128 -6
c-3 -7 -13 -37 -24 -67 -17 -49 -37 -72 -50 -58 -3 3 4 23 15 46 12 22 21 52
21 66 0 19 5 25 21 25 13 0 19 -5 17 -12z m209 0 c-2 -7 -12 -39 -21 -70 -15
-51 -20 -58 -42 -58 -18 0 -24 4 -21 13 3 8 8 39 12 70 l7 57 35 0 c24 0 34
-4 30 -12z m243 -58 l0 -70 -56 0 -57 0 7 53 c3 28 6 60 6 70 0 14 9 17 50 17
l50 0 0 -70z m1340 60 c0 -5 -4 -10 -9 -10 -6 0 -13 5 -16 10 -3 6 1 10 9 10
9 0 16 -4 16 -10z m198 -62 l3 -68 -28 0 c-22 0 -33 8 -47 34 -11 20 -31 39
-47 45 -22 8 -29 16 -29 36 0 26 0 26 73 23 l72 -3 3 -67z m-2046 -154 c-3
-94 -11 -136 -23 -128 -7 4 -7 10 0 17 6 6 11 46 11 89 0 64 -3 78 -16 78 -8
0 -13 4 -10 9 4 5 14 8 24 6 14 -2 17 -12 14 -71z m214 59 c-2 -10 -8 -55 -11
-100 -4 -46 -11 -83 -16 -83 -10 0 -12 183 -2 193 14 14 34 7 29 -10z m-466
-20 c0 -5 -7 -16 -15 -27 -8 -10 -17 -38 -21 -62 l-6 -44 -89 0 -89 0 0 70 0
70 110 0 c61 0 110 -3 110 -7z m230 -69 c0 -70 -12 -83 -30 -30 -14 44 0 113
21 101 5 -4 9 -35 9 -71z m570 2 l0 -74 -67 2 -68 1 -3 73 -3 72 71 0 70 0 0
-74z m198 2 c2 -38 -1 -68 -5 -69 -13 -2 -86 -2 -115 0 -28 1 -28 2 -28 71 l0
71 73 -3 72 -3 3 -67z m-1048 -188 l0 -70 -85 0 -85 0 0 70 0 70 85 0 85 0 0
-70z m500 66 c0 -3 -4 -8 -10 -11 -5 -3 -10 -1 -10 4 0 6 5 11 10 11 6 0 10
-2 10 -4z m270 -1 c0 -2 -10 -34 -21 -70 -33 -99 -69 -83 -69 30 0 17 3 35 7
38 7 8 83 10 83 2z m-50 -155 c0 -5 -7 -10 -15 -10 -8 0 -15 5 -15 10 0 6 7
10 15 10 8 0 15 -4 15 -10z m-4 -36 c-3 -9 -6 -20 -6 -25 0 -5 -4 -9 -10 -9
-5 0 -10 11 -10 25 0 16 6 25 16 25 11 0 14 -5 10 -16z m1664 -54 l0 -70 -40
0 -40 0 0 70 0 70 40 0 40 0 0 -70z m-2353 -47 c-2 -16 -4 -5 -4 22 0 28 2 40
4 28 2 -13 2 -35 0 -50z"/>
<path d="M1880 2696 l0 -85 140 1 140 1 0 83 0 84 -140 0 -140 0 0 -84z m270
4 l0 -70 -130 0 -130 0 0 70 0 70 130 0 130 0 0 -70z"/>
<path d="M2186 2754 c-3 -9 -6 -44 -6 -79 l0 -64 33 -3 c17 -2 56 -1 85 0 l52
4 0 79 0 79 -79 0 c-63 0 -80 -3 -85 -16z m154 -64 l0 -70 -75 0 -75 0 0 63
c0 35 3 67 7 70 3 4 37 7 75 7 l68 0 0 -70z"/>
<path d="M2380 2688 l0 -83 80 3 80 4 0 79 0 79 -80 0 -80 0 0 -82z m150 2 l0
-70 -70 0 -70 0 0 70 0 70 70 0 70 0 0 -70z"/>
<path d="M2570 2691 c0 -79 0 -80 28 -83 15 -2 51 -1 80 0 l52 4 0 79 0 79
-80 0 -80 0 0 -79z m150 -1 l0 -70 -70 0 -70 0 0 70 0 70 70 0 70 0 0 -70z"/>
<path d="M2760 2690 l0 -80 80 0 80 0 0 80 0 80 -80 0 -80 0 0 -80z m150 0 l0
-70 -70 0 -70 0 0 70 0 70 70 0 70 0 0 -70z"/>
<path d="M2950 2691 l0 -80 33 -3 c17 -2 56 -1 85 0 l53 4 -3 76 -3 77 -82 3
-83 3 0 -80z m158 -3 l3 -68 -76 0 -75 0 0 70 0 71 73 -3 72 -3 3 -67z"/>
<path d="M3145 2750 c-4 -11 -5 -46 -4 -78 3 -55 4 -57 33 -62 17 -3 55 -3 83
-2 l53 4 0 79 0 79 -79 0 c-71 0 -80 -2 -86 -20z m155 -60 l0 -70 -69 0 c-77
0 -81 4 -81 70 0 66 4 70 81 70 l69 0 0 -70z"/>
<path d="M3340 2690 l0 -80 80 0 80 0 0 80 0 80 -80 0 -80 0 0 -80z m150 0 l0
-70 -70 0 -70 0 0 70 0 70 70 0 70 0 0 -70z"/>
<path d="M3530 2690 c0 -89 -7 -82 80 -82 87 0 80 -7 80 82 l0 80 -80 0 -80 0
0 -80z m150 0 l0 -70 -70 0 -70 0 0 70 0 70 70 0 70 0 0 -70z"/>
<path d="M3720 2691 l0 -80 33 -3 c17 -2 53 -1 80 0 l47 4 0 79 0 79 -80 0
-80 0 0 -79z m150 -1 l0 -70 -70 0 -70 0 0 70 0 70 70 0 70 0 0 -70z"/>
<path d="M3917 2764 c-4 -4 -7 -40 -7 -80 l0 -72 33 -3 c17 -2 57 -1 87 2 51
5 49 6 -27 7 l-83 2 0 70 0 71 73 -3 72 -3 6 -65 6 -65 -1 70 -1 70 -75 3
c-42 1 -79 0 -83 -4z"/>
<path d="M4100 2691 l0 -80 33 -3 c17 -2 56 -1 85 0 l52 4 0 79 0 79 -85 0
-85 0 0 -79z m160 -1 l0 -70 -75 0 -75 0 0 63 c0 35 3 67 7 70 3 4 37 7 75 7
l68 0 0 -70z"/>
<path d="M4300 2691 l0 -79 33 -4 c18 -2 54 -2 80 0 l47 4 0 79 0 79 -80 0
-80 0 0 -79z m150 -1 l0 -70 -70 0 -70 0 0 70 0 70 70 0 70 0 0 -70z"/>
<path d="M4490 2690 c0 -85 -2 -82 55 -82 8 0 35 0 60 1 l45 1 0 80 0 80 -80
0 -80 0 0 -80z m150 0 l0 -70 -70 0 -70 0 0 70 0 70 70 0 70 0 0 -70z"/>
<path d="M915 2720 l-90 -6 85 -1 c47 -1 96 3 110 7 29 9 28 9 -105 0z"/>
<path d="M5320 2680 c19 -13 30 -13 30 0 0 6 -10 10 -22 10 -19 0 -20 -2 -8
-10z"/>
<path d="M5199 2652 c-31 -16 -68 -46 -86 -70 -39 -52 -73 -157 -72 -221 2
-42 2 -41 9 19 20 161 94 260 217 289 31 7 33 9 12 10 -15 1 -51 -12 -80 -27z"/>
<path d="M5403 2669 c120 -28 186 -107 220 -264 3 -11 3 -1 1 21 -10 127 -135
259 -240 253 -11 -1 -2 -5 19 -10z"/>
<path d="M5342 2640 c0 -14 2 -19 5 -12 2 6 2 18 0 25 -3 6 -5 1 -5 -13z"/>
<path d="M5340 2585 c-13 -34 -5 -95 16 -122 12 -16 15 -16 24 -3 15 21 7 102
-13 130 l-16 23 -11 -28z m38 -63 c6 -63 -13 -78 -28 -23 -12 45 -4 99 13 82
5 -5 12 -32 15 -59z"/>
<path d="M1910 2589 c0 -5 5 -7 10 -4 6 3 10 8 10 11 0 2 -4 4 -10 4 -5 0 -10
-5 -10 -11z"/>
<path d="M1948 2593 c6 -2 18 -2 25 0 6 3 1 5 -13 5 -14 0 -19 -2 -12 -5z"/>
<path d="M2010 2590 c0 -6 5 -10 10 -10 6 0 10 -30 10 -70 l0 -70 -71 0 -71 0
4 75 c2 41 0 75 -4 75 -5 0 -8 -36 -8 -80 l0 -80 80 0 80 0 0 79 c0 61 -3 80
-15 85 -8 3 -15 1 -15 -4z"/>
<path d="M2140 2589 c0 -5 5 -7 10 -4 6 3 10 8 10 11 0 2 -4 4 -10 4 -5 0 -10
-5 -10 -11z"/>
<path d="M2350 2596 c0 -2 7 -7 16 -10 8 -3 12 -2 9 4 -6 10 -25 14 -25 6z"/>
<path d="M2555 2590 c3 -5 8 -10 11 -10 2 0 4 5 4 10 0 6 -5 10 -11 10 -5 0
-7 -4 -4 -10z"/>
<path d="M2925 2590 c-3 -6 1 -7 9 -4 18 7 21 14 7 14 -6 0 -13 -4 -16 -10z"/>
<path d="M2980 2590 c-10 -6 -11 -10 -2 -10 8 0 12 -21 12 -70 l0 -70 -70 0
-70 0 0 69 c0 46 4 71 13 74 7 3 5 6 -5 6 -16 1 -18 -9 -18 -79 l0 -80 80 0
80 0 0 85 c0 47 -1 85 -2 85 -2 0 -10 -5 -18 -10z"/>
<path d="M3179 2593 c0 -5 0 -41 1 -80 l1 -73 -70 0 -71 0 0 69 c0 46 4 71 13
74 7 3 5 6 -5 6 -16 1 -18 -9 -18 -79 l0 -80 80 0 80 0 0 85 c0 47 -2 85 -5
85 -3 0 -5 -3 -6 -7z"/>
<path d="M3310 2596 c0 -2 7 -7 16 -10 8 -3 12 -2 9 4 -6 10 -25 14 -25 6z"/>
<path d="M3496 2593 c-40 -10 -57 -44 -51 -101 4 -41 2 -53 -7 -50 -18 6 -23
128 -6 139 10 7 9 9 -4 9 -16 0 -18 -10 -18 -80 0 -79 0 -80 26 -80 19 0 28
-7 37 -32 6 -18 10 -37 9 -42 -2 -5 4 -16 12 -25 8 -9 19 -28 25 -44 9 -24 8
-27 -9 -27 -14 0 -20 9 -23 33 l-4 32 -1 -37 c-2 -33 1 -37 25 -40 26 -3 26
-3 24 -78 -1 -49 -7 -80 -17 -90 -12 -12 -14 -4 -14 68 l0 82 -80 0 -80 0 0
-86 0 -85 75 2 c41 1 78 -1 82 -4 5 -6 -18 -11 -38 -9 -11 2 -17 -152 -7 -170
8 -17 -6 -18 -242 -18 -149 0 -250 4 -250 9 0 6 16 11 35 13 20 2 35 6 35 11
0 4 0 40 0 80 l0 73 -30 2 c-27 2 -30 -1 -45 -50 -8 -28 -15 -83 -15 -122 -1
-92 -47 -265 -99 -371 -58 -118 -108 -189 -208 -296 -49 -52 -99 -115 -111
-140 -34 -71 -101 -249 -94 -249 4 0 22 42 41 93 56 151 83 196 188 308 98
106 185 240 228 353 l18 46 307 0 307 0 11 -38 c21 -70 88 -147 222 -257 l130
-108 67 -208 c37 -115 69 -207 71 -205 9 9 -122 403 -142 425 -11 13 -64 58
-116 101 -108 88 -180 162 -205 210 -9 18 -25 81 -36 140 -10 59 -26 126 -34
150 -18 51 -19 72 -3 88 6 6 12 22 14 34 8 89 30 138 61 138 8 0 28 -13 44
-29 26 -26 29 -36 29 -93 0 -38 8 -87 20 -121 25 -70 26 -97 3 -98 -12 0 -13
-2 -5 -6 24 -9 40 18 53 86 15 86 12 93 -106 331 -155 311 -180 410 -100 410
22 0 65 -38 65 -56 0 -18 92 -159 187 -286 52 -71 97 -128 98 -128 2 0 21 21
41 46 29 35 35 47 24 54 -10 6 -12 32 -8 112 3 56 3 91 1 76 -6 -39 -17 -35
-42 15 -12 23 -19 31 -15 17 3 -14 13 -36 22 -50 9 -14 17 -45 18 -70 0 -25
-1 -35 -3 -22 -4 18 -11 22 -42 22 -41 0 -71 23 -71 55 0 10 10 34 22 54 19
29 22 47 19 102 -3 64 -2 68 21 71 22 3 22 4 -4 9 l-28 6 0 -81 c0 -51 -5 -87
-12 -94 -7 -7 -34 -12 -60 -12 -47 0 -48 -1 -48 -30 0 -38 -17 -39 -26 -2 -4
15 -14 32 -23 39 -13 10 -1 12 62 13 l77 0 0 80 c0 77 -1 80 -22 79 -17 -1
-19 -2 -5 -6 14 -4 17 -16 17 -74 l0 -69 -69 0 c-63 0 -71 2 -90 26 -15 19
-21 41 -21 75 0 27 -4 49 -9 49 -4 0 -6 -11 -3 -25 6 -31 0 -31 -33 -1 -18 17
-22 26 -13 29 16 7 0 6 -26 0z m267 -227 c-4 -26 0 -39 16 -55 11 -11 28 -21
36 -21 8 0 15 -7 15 -15 0 -11 -12 -15 -49 -15 -43 0 -52 4 -70 29 -13 18 -21
45 -21 70 l0 41 39 0 c40 0 40 0 34 -34z m107 -96 c0 -11 5 -20 10 -20 6 0 10
-6 10 -12 0 -10 -19 -12 -70 -10 -77 4 -97 22 -25 22 38 0 45 3 45 20 0 11 7
20 15 20 8 0 15 -9 15 -20z m-382 -122 l-3 -72 -65 0 -65 -1 -3 73 -3 72 71 0
71 0 -3 -72z m98 1 c27 -54 31 -70 19 -65 -9 3 -28 9 -41 12 -22 6 -24 11 -24
65 0 32 2 59 5 59 3 0 21 -32 41 -71z m284 28 c0 -69 -16 -73 -61 -17 -22 27
-39 52 -39 55 0 3 23 5 50 5 l50 0 0 -43z m-850 -217 l0 -70 -30 0 c-40 0 -46
18 -30 86 11 46 17 54 37 54 22 0 23 -3 23 -70z m476 44 c-4 -15 -13 -41 -21
-58 -13 -31 -13 -31 -14 27 -1 52 1 57 20 57 18 0 20 -4 15 -26z m198 -86 c6
-25 4 -28 -19 -28 -24 0 -25 2 -25 63 l1 62 18 -35 c10 -19 21 -47 25 -62z m1
-48 c-3 -5 -12 -10 -20 -10 -8 0 -17 5 -20 10 -4 6 5 10 20 10 15 0 24 -4 20
-10z m-210 -72 c28 -96 54 -88 -273 -88 l-288 0 17 68 c10 37 18 68 18 70 1 1
116 2 256 2 l254 0 16 -52z m205 27 c0 -14 -4 -25 -9 -25 -5 0 -11 11 -13 25
-4 17 -1 25 8 25 8 0 14 -11 14 -25z m-217 -131 c30 -5 37 -11 37 -30 0 -20
-6 -23 -54 -29 -67 -9 -532 -3 -541 7 -16 16 7 47 38 51 54 7 480 7 520 1z"/>
<path d="M3608 2539 c-1 -33 0 -63 4 -65 3 -2 8 23 10 57 1 33 0 63 -4 65 -3
2 -8 -23 -10 -57z"/>
<path d="M4310 2589 c-24 -7 -24 -7 -2 -8 20 -1 22 -6 23 -53 l1 -53 8 39 c11
59 1 84 -30 75z"/>
<path d="M2070 2510 l0 -80 80 0 80 0 0 80 c0 70 -2 80 -17 79 -11 0 -13 -3
-5 -6 8 -3 12 -28 12 -74 l0 -69 -71 0 -71 0 4 75 c2 41 0 75 -4 75 -5 0 -8
-36 -8 -80z"/>
<path d="M2260 2510 l0 -80 79 0 c88 0 87 -1 90 75 4 85 -7 51 -18 -57 -1 -5
-32 -8 -71 -8 l-70 0 0 69 c0 46 4 71 13 74 7 3 5 6 -5 6 -16 1 -18 -9 -18
-79z"/>
<path d="M2390 2586 c0 -9 30 -14 35 -6 4 6 -3 10 -14 10 -12 0 -21 -2 -21 -4z"/>
<path d="M2649 2543 c4 -52 7 -49 13 10 2 22 0 37 -7 37 -6 0 -9 -18 -6 -47z"/>
<path d="M3220 2510 l0 -81 83 3 82 3 3 78 c3 75 2 77 -20 76 -19 -1 -20 -2
-4 -6 16 -4 18 -12 12 -71 -3 -37 -6 -68 -6 -69 0 -2 -31 -3 -70 -3 l-70 0 0
69 c0 58 3 70 18 74 13 4 11 5 -5 6 -22 1 -23 -2 -23 -79z"/>
<path d="M3278 2583 c7 -3 16 -2 19 1 4 3 -2 6 -13 5 -11 0 -14 -3 -6 -6z"/>
<path d="M4180 2510 l0 -80 79 0 c63 0 80 3 85 16 8 21 8 24 -4 24 -5 0 -10
-7 -10 -15 0 -12 -15 -15 -71 -15 l-71 0 4 75 c2 41 0 75 -4 75 -5 0 -8 -36
-8 -80z"/>
<path d="M4238 2583 c7 -3 16 -2 19 1 4 3 -2 6 -13 5 -11 0 -14 -3 -6 -6z"/>
<path d="M4377 2583 c-4 -3 -7 -39 -7 -80 l0 -73 140 0 140 0 0 80 0 80 -133
0 c-74 0 -137 -3 -140 -7z m263 -73 l0 -70 -124 0 -124 0 -6 28 c-4 22 -3 66
3 105 0 4 57 7 126 7 l125 0 0 -70z"/>
<path d="M1542 2460 c-65 -54 -76 -60 -117 -60 -72 0 -85 -20 -85 -130 0 -131
-2 -130 199 -130 l160 0 20 26 c17 22 21 41 21 104 0 100 -19 130 -85 130 -42
0 -44 1 -48 33 -4 31 -4 31 -5 -5 l-2 -38 49 0 c68 0 81 -20 81 -120 0 -121 1
-120 -190 -120 -196 0 -190 -4 -190 120 0 106 9 120 78 120 42 0 53 6 112 55
55 48 66 53 72 38 5 -14 7 -12 7 10 1 15 -1 27 -2 27 -2 0 -36 -27 -75 -60z"/>
<path d="M3485 2510 c-4 -7 3 -8 22 -4 38 9 42 14 10 14 -14 0 -29 -5 -32 -10z"/>
<path d="M2537 2496 c-3 -8 -16 -16 -29 -19 -21 -4 -21 -4 -2 -6 21 -1 52 24
42 35 -3 3 -8 -2 -11 -10z"/>
<path d="M5373 2390 c0 -30 2 -43 4 -27 2 15 2 39 0 55 -2 15 -4 2 -4 -28z"/>
<path d="M2680 2410 l-35 -7 38 -2 c20 0 37 4 37 9 0 6 -1 9 -2 9 -2 -1 -19
-5 -38 -9z"/>
<path d="M1880 2330 l0 -80 115 0 115 0 0 80 0 80 -115 0 -115 0 0 -80z m220
0 l0 -70 -105 0 -105 0 0 70 0 70 105 0 105 0 0 -70z"/>
<path d="M2910 2330 l0 -80 80 0 80 0 0 80 0 80 -80 0 -80 0 0 -80z m150 0 l0
-70 -70 0 -70 0 0 70 0 70 70 0 70 0 0 -70z"/>
<path d="M3100 2330 l0 -80 80 0 80 0 0 80 0 80 -80 0 -80 0 0 -80z m150 0 l0
-70 -70 0 -70 0 0 70 0 70 70 0 70 0 0 -70z"/>
<path d="M3290 2330 l0 -81 83 3 82 3 0 75 0 75 -82 3 -83 3 0 -81z m158 -2
l3 -68 -76 0 -75 0 0 70 0 71 73 -3 72 -3 3 -67z"/>
<path d="M4051 2410 c0 -3 6 -30 14 -60 14 -52 15 -53 10 -11 -5 34 -25 95
-24 71z"/>
<path d="M4538 2403 l102 -4 0 -159 0 -160 -70 0 -70 0 0 90 c0 89 0 90 -25
90 -23 0 -24 4 -28 65 l-3 65 0 -67 c1 -63 3 -68 24 -71 21 -3 22 -8 22 -96
l0 -93 80 -2 80 -2 0 175 0 176 -107 -2 -108 -2 103 -3z"/>
<path d="M5630 2335 c0 -19 -1 -35 -2 -35 -2 0 -27 9 -57 21 -30 11 -84 22
-120 24 l-66 4 67 -9 c37 -6 91 -19 122 -30 53 -20 55 -22 59 -63 2 -23 4 -5
5 41 1 45 0 82 -3 82 -3 0 -5 -16 -5 -35z"/>
<path d="M4150 2346 c0 -2 13 -6 29 -8 17 -2 28 -1 25 4 -5 8 -54 12 -54 4z"/>
<path d="M5278 2343 c18 -2 45 -2 60 0 15 2 0 4 -33 4 -33 0 -45 -2 -27 -4z"/>
<path d="M5203 2333 c9 -2 23 -2 30 0 6 3 -1 5 -18 5 -16 0 -22 -2 -12 -5z"/>
<path d="M1491 2290 l1 -45 8 35 c5 20 5 39 -1 45 -5 5 -9 -8 -8 -35z"/>
<path d="M5093 2313 c-29 -9 -53 -20 -53 -25 0 -5 6 -6 12 -2 7 5 40 16 73 25
33 10 51 18 40 17 -11 0 -44 -7 -72 -15z"/>
<path d="M4240 2272 l5 -47 3 39 c2 21 0 42 -5 47 -4 4 -6 -13 -3 -39z"/>
<path d="M1535 2290 c3 -5 19 -10 36 -10 16 0 29 5 29 10 0 6 -16 10 -36 10
-21 0 -33 -4 -29 -10z"/>
<path d="M3613 2283 c-10 -10 -13 -14 -7 -10 7 5 25 12 41 17 23 7 24 8 7 9
-12 1 -30 -7 -41 -16z"/>
<path d="M4083 2235 c0 -33 2 -45 4 -27 2 18 2 45 0 60 -2 15 -4 0 -4 -33z"/>
<path d="M5508 2207 c4 -120 9 -135 10 -32 1 50 -2 95 -6 102 -4 6 -6 -26 -4
-70z"/>
<path d="M2410 2276 c0 -2 13 -6 29 -8 17 -2 28 -1 25 4 -5 8 -54 12 -54 4z"/>
<path d="M5043 2215 c0 -33 2 -45 4 -27 2 18 2 45 0 60 -2 15 -4 0 -4 -33z"/>
<path d="M1532 2255 c9 -9 68 -12 68 -4 0 5 -16 9 -37 9 -20 0 -34 -2 -31 -5z"/>
<path d="M3147 2224 c-9 -10 -9 -134 1 -134 4 0 6 19 5 42 -5 85 -1 89 75 86
l67 -3 3 -64 c2 -41 -1 -67 -9 -71 -6 -4 -44 -6 -83 -3 -51 3 -68 1 -60 -7 7
-7 41 -10 85 -8 l74 3 0 80 0 80 -75 3 c-42 1 -79 0 -83 -4z"/>
<path d="M2165 2180 c-4 -21 -4 -44 0 -50 3 -5 1 -10 -4 -10 -7 0 -10 -21 -9
-52 1 -48 2 -49 5 -13 5 44 17 62 48 76 16 8 14 8 -9 4 l-28 -6 6 46 c9 55 0
61 -9 5z"/>
<path d="M2610 2213 c0 -5 16 -8 35 -9 22 0 31 3 23 8 -16 10 -58 10 -58 1z"/>
<path d="M4238 2140 c-4 -50 -2 -91 3 -100 9 -13 10 -13 6 0 -2 8 2 33 10 54
7 22 11 41 8 44 -3 3 -6 -1 -7 -9 -1 -8 -4 11 -7 41 l-6 55 -7 -85z"/>
<path d="M5621 2179 c0 -15 -3 -42 -6 -60 l-5 -34 11 34 c5 18 8 45 6 60 l-4
26 -2 -26z"/>
<path d="M5051 2133 c-2 -44 50 -183 91 -243 40 -61 114 -120 147 -120 9 0 -2
9 -24 19 -84 38 -157 148 -195 294 -10 40 -19 62 -19 50z"/>
<path d="M4090 2123 c0 -12 5 -25 11 -28 16 -11 17 -2 2 25 -12 24 -13 24 -13
3z"/>
<path d="M4075 2062 c4 -13 11 -45 16 -70 l8 -47 -4 53 c-2 28 -9 60 -15 70
-9 14 -10 13 -5 -6z"/>
<path d="M5581 2012 c-45 -134 -128 -222 -226 -240 -27 -5 -39 -10 -25 -11 73
-3 155 51 208 137 31 50 78 169 71 177 -3 2 -15 -26 -28 -63z"/>
<path d="M2902 2027 c-26 -28 -29 -62 -4 -72 14 -5 15 -4 5 6 -21 21 -15 46
15 68 15 11 22 21 16 21 -6 0 -20 -10 -32 -23z"/>
<path d="M3072 2042 c-8 -2 -12 -31 -12 -83 l0 -80 83 3 82 3 0 80 0 80 -71 0
c-39 1 -76 -1 -82 -3z m146 -79 l-3 -68 -70 0 -70 0 -3 68 -3 67 76 0 76 0 -3
-67z"/>
<path d="M3260 2038 c0 -4 34 -8 75 -8 l75 0 0 -70 0 -70 -70 0 c-56 0 -70 3
-70 15 0 8 -4 15 -9 15 -5 0 -7 -9 -4 -20 5 -18 14 -20 84 -20 l79 0 0 80 c0
44 -3 80 -7 81 -43 6 -153 4 -153 -3z"/>
<path d="M3578 2020 c-3 -16 -1 -30 4 -30 4 0 8 14 8 30 0 17 -2 30 -4 30 -2
0 -6 -13 -8 -30z"/>
<path d="M5474 1975 c-9 -26 -30 -65 -46 -87 -16 -22 -27 -42 -25 -44 6 -6 63
83 82 130 9 21 14 40 12 43 -3 2 -13 -17 -23 -42z"/>
<path d="M2161 2000 c0 -8 4 -34 9 -58 8 -33 7 -50 -5 -78 -17 -41 -19 -52 -6
-38 23 25 30 79 17 134 -8 30 -14 48 -15 40z"/>
<path d="M4209 1978 c-3 -22 -1 -34 4 -29 5 5 7 21 5 37 -3 27 -4 26 -9 -8z"/>
<path d="M2351 1983 c0 -12 -4 -30 -7 -40 -5 -17 -5 -17 6 0 6 10 9 28 7 40
-4 22 -4 22 -6 0z"/>
<path d="M3538 1993 c7 -3 16 -2 19 1 4 3 -2 6 -13 5 -11 0 -14 -3 -6 -6z"/>
<path d="M3251 1944 c0 -11 3 -14 6 -6 3 7 2 16 -1 19 -3 4 -6 -2 -5 -13z"/>
<path d="M3840 1954 c0 -6 7 -19 16 -30 14 -18 14 -18 3 6 -14 31 -19 36 -19
24z"/>
<path d="M4300 1945 c0 -8 2 -15 4 -15 2 0 6 7 10 15 3 8 1 15 -4 15 -6 0 -10
-7 -10 -15z"/>
<path d="M2416 1875 c-3 -9 -5 -35 -5 -58 2 -40 2 -39 9 13 7 59 6 71 -4 45z"/>
<path d="M2231 1849 c0 -13 4 -33 9 -44 7 -14 8 -8 3 20 -7 46 -13 59 -12 24z"/>
<path d="M1880 1780 l0 -80 80 0 80 0 0 80 0 80 -80 0 -80 0 0 -80z m150 0 l0
-70 -70 0 -70 0 0 70 0 70 70 0 70 0 0 -70z"/>
<path d="M4490 1780 l0 -80 80 0 80 0 0 80 0 80 -80 0 -80 0 0 -80z m150 0 l0
-70 -70 0 -70 0 0 70 0 70 70 0 70 0 0 -70z"/>
<path d="M2619 1795 c-9 -25 -13 -42 -8 -40 9 6 33 75 27 80 -2 2 -11 -16 -19
-40z"/>
<path d="M2120 1741 c0 -6 4 -13 10 -16 6 -3 7 1 4 9 -7 18 -14 21 -14 7z"/>
<path d="M3672 1700 c0 -19 2 -27 5 -17 2 9 2 25 0 35 -3 9 -5 1 -5 -18z"/>
<path d="M2753 1675 c0 -22 2 -30 4 -17 2 12 2 30 0 40 -3 9 -5 -1 -4 -23z"/>
<path d="M2741 1614 c0 -11 3 -14 6 -6 3 7 2 16 -1 19 -3 4 -6 -2 -5 -13z"/>
<path d="M3206 1526 c-41 -48 -53 -55 -89 -59 l-42 -4 42 -1 c38 -2 45 2 86
48 25 28 48 50 51 50 3 0 8 -22 12 -50 l7 -50 44 0 c33 0 50 -6 68 -25 22 -21
25 -34 27 -97 l2 -73 3 64 c6 103 -22 141 -101 141 -32 0 -34 2 -40 43 -11 73
-18 74 -70 13z"/>
<path d="M3037 1442 c-13 -14 -17 -39 -17 -110 0 -86 1 -92 26 -111 24 -19 40
-21 168 -21 147 0 188 9 194 43 3 14 -2 12 -22 -8 -25 -24 -28 -25 -168 -25
-189 0 -188 -1 -188 125 0 86 2 95 22 109 12 9 18 16 12 16 -6 0 -18 -8 -27
-18z"/>
<path d="M3229 1394 c-27 -71 -40 -116 -35 -121 6 -6 6 -5 36 81 20 60 20 93
-1 40z"/>
<path d="M3133 1360 c-13 -5 -23 -14 -23 -20 0 -12 48 -32 64 -27 6 3 -1 8
-16 12 -16 4 -28 10 -28 14 0 4 12 12 28 18 15 6 20 11 12 11 -8 1 -25 -3 -37
-8z"/>
<path d="M3283 1357 c34 -14 34 -23 1 -31 -15 -4 -24 -9 -22 -12 7 -6 68 17
68 26 0 4 -14 13 -31 19 -41 14 -53 12 -16 -2z"/>
<path d="M4411 1180 c0 -8 4 -24 9 -35 5 -13 9 -14 9 -5 0 8 -4 24 -9 35 -5
13 -9 14 -9 5z"/>
<path d="M4431 1110 c0 -8 4 -24 9 -35 5 -13 9 -14 9 -5 0 8 -4 24 -9 35 -5
13 -9 14 -9 5z"/>
</g>
</svg>
